<svg width1="85.7mm" height1="54mm" version="1.1" viewBox="0 0 85.7 54" xmlns="http://www.w3.org/2000/svg" xmlns:xlink="http://www.w3.org/1999/xlink">
 <defs>
  <clipPath id="g">
   <path d="m63 125h22v18h-22z"/>
  </clipPath>
  <clipPath id="f">
   <path d="m66.2 126c-1.68 0-3.04 1.36-3.04 3.04v10.8c0 1.68 1.36 3.04 3.04 3.04h15.2c1.68 0 3.04-1.36 3.04-3.04v-10.8c0-1.68-1.36-3.04-3.04-3.04z"/>
  </clipPath>
  <linearGradient id="b" x1=".107" x2=".503" gradientTransform="matrix(0 42.6 -42.6 0 73.8 121)" gradientUnits="userSpaceOnUse">
   <stop style="stop-color:#fdd673" offset="0"/>
   <stop style="stop-color:#fecd69" offset=".5"/>
   <stop style="stop-color:#fec45f" offset="1"/>
  </linearGradient>
  <clipPath id="e">
   <rect width="22" height="18"/>
  </clipPath>
  <clipPath id="d">
   <path d="m0.117 0.789h21.3v16.9h-21.3z"/>
  </clipPath>
  <clipPath id="c">
   <path d="m18.7 11.6h-4.6c0.0156-0.129 0.0391-0.258 0.0391-0.391 0-0.816-0.289-1.61-0.82-2.24 0.531-0.633 0.82-1.42 0.82-2.24 0-0.227-0.0234-0.441-0.0664-0.652h4.62zm-8.06 2.73c-1.72 0-3.12-1.4-3.12-3.12 0-0.777 0.297-1.52 0.836-2.11l0.121-0.133-0.121-0.133c-0.539-0.582-0.836-1.33-0.836-2.11 0-1.72 1.4-3.12 3.12-3.12s3.11 1.4 3.11 3.12c0 0.777-0.297 1.52-0.832 2.11l-0.125 0.133 0.125 0.133c0.535 0.582 0.832 1.33 0.832 2.11 0 1.72-1.39 3.12-3.11 3.12m-3.46-2.73h-2.73v-5.52h2.76c-0.0391 0.211-0.0625 0.426-0.0625 0.652 0 0.816 0.289 1.61 0.82 2.24-0.531 0.633-0.82 1.42-0.82 2.24 0 0.133 0.0234 0.262 0.0391 0.391m14.2-5.52v-0.391h-3.9v-4.93h-0.391v4.93h-3.16c-0.414-1.32-1.58-2.3-3-2.43v-2.5h-0.391v2.47c-1.54 0.0273-2.83 1.05-3.27 2.46h-2.87v-4.93h-0.387v4.93h-3.93v0.391h3.93v5.52h-3.93v0.391h3.93v5.64h0.387v-5.64h2.79c0.352 1.54 1.71 2.69 3.35 2.72v2.93h0.391v-2.95c1.52-0.145 2.75-1.24 3.08-2.69h3.08v5.64h0.391v-5.64h3.9v-0.391h-2.32v-5.52z"/>
  </clipPath>
  <linearGradient id="a" x1=".279" x2=".595" gradientTransform="matrix(0 53.3 -53.3 0 10.8 -14.1)" gradientUnits="userSpaceOnUse">
   <stop style="stop-color:#d9a143" offset="0"/>
   <stop style="stop-color:#e1b556" offset=".5"/>
   <stop style="stop-color:#e9ca69" offset="1"/>
  </linearGradient>
    <linearGradient id="aa" x1="-252" x2="-208" y1="57.4" y2="28.1" gradientUnits="userSpaceOnUse">
   <stop style="stop-color:#126868" offset="0"/>
   <stop style="stop-color:#188686" offset="1"/>
  </linearGradient>
 </defs>
 <g transform="translate(274.5 -15.8)">
  <rect x="-274.5" y="15.8" width="85.7" height="54" ry=".205" style="fill:url(#aa)"/>
  <path d="m-269 39.2v6.01l-3.01-3z" style="fill:none;stroke-width:.191;stroke:#fff"/>
  <g transform="matrix(.148 0 0 .147 -210 18.8)" style="fill:#fff">
   <g transform="translate(-36.9 -26)" style="clip-rule:evenodd;fill-rule:evenodd;fill:#fff;image-rendering:optimizeQuality;shape-rendering:geometricPrecision">
    <g style="fill:#fff">
     <path class="fil0" d="m95.9 27.8v24.4c0 6.39-3.52 10.5-9.24 10.5-3.23 0-5.16-1.47-6.75-3.56-1.53 2.09-3.51 3.56-6.63 3.56-5.72 0-9.24-4.13-9.24-10.5v-24.4c0-0.453 0.284-0.735 0.737-0.735h3.57c0.453 0 0.737 0.282 0.737 0.735v24.6c0 3.51 1.47 5.49 4.19 5.49 2.49 0 4.14-1.98 4.14-5.49v-24.6c0-0.454 0.284-0.737 0.737-0.737h3.57c0.453 0 0.737 0.284 0.737 0.737v24.6c0 3.51 1.76 5.49 4.2 5.49 2.72 0 4.14-1.98 4.14-5.49v-24.6c0-0.452 0.284-0.736 0.738-0.736h3.57c0.511 0 0.794 0.284 0.794 0.736z" style="fill-rule:nonzero;fill:#fff"/>
     <path class="fil0" d="m157 37.5v24.3c0 0.509-0.283 0.792-0.794 0.792h-3.57c-0.455 0-0.737-0.284-0.737-0.792v-24.5c0-3.51-1.48-5.49-4.14-5.49-2.55 0-4.2 1.98-4.2 5.49v24.5c0 0.509-0.283 0.792-0.737 0.792h-3.57c-0.453 0-0.737-0.284-0.737-0.792v-24.5c0-3.51-1.7-5.49-4.14-5.49-2.78 0-4.19 1.98-4.19 5.49v24.5c0 0.509-0.284 0.792-0.737 0.792h-3.57c-0.453 0-0.737-0.284-0.737-0.792v-24.3c0-6.4 3.51-10.5 9.24-10.5 3.18 0 5.16 1.47 6.69 3.57 1.53-2.09 3.57-3.57 6.69-3.57 5.67 0 9.24 4.13 9.24 10.5z" style="fill-rule:nonzero;fill:#fff"/>
     <path class="fil0" d="m111 62.7c5.89 0 9.81-3.62 9.81-9.34 0-11.3-14.3-10.1-14.3-17.4 0-2.78 1.53-4.23 4.31-4.23l5.85 0.0162c0.352 0 0.638-0.28 0.638-0.626v-3.4c0-0.346-0.286-0.628-0.638-0.628l-5.91-0.0293c-5.61 0-9.35 3.45-9.35 8.9 0 10.7 14.2 9.24 14.2 17.4 0 3-1.59 4.61-4.59 4.62l-5.81-0.0065c-0.354-0.0014-0.64 0.28-0.64 0.626v3.48c0 0.346 0.286 0.626 0.638 0.626z" style="fill-rule:nonzero;fill:#fff"/>
     <path class="fil0" d="m52 37.2c0-3.4-1.92-5.37-4.48-5.37-3.18 0-5.02 1.97-5.02 5.37v12l4.56-2.48c0.284-0.159 0.635 0.0469 0.635 0.373v4.3c0 0.309-0.165 0.593-0.434 0.744l-3.89 2.11c-0.536 0.301-0.868 0.87-0.868 1.49v6.16c0 0.511-0.279 0.795-0.725 0.795h-3.57c-0.446 0-0.725-0.284-0.725-0.795v-24.4c0-6.24 4.03-10.4 10.2-10.4 5.75 0 9.4 4.19 9.4 10.4v24.4c0 0.511-0.279 0.795-0.78 0.795h-3.52c-0.446 0-0.782-0.284-0.782-0.795z" style="fill-rule:nonzero;fill:#fff"/>
    </g>
   </g>
  </g>
  <g transform="matrix(.427 0 0 .426 -292 4.23)">
   <path d="m202 145c0-0.612 0.392-1.12 1.03-1.12 0.6 0 1.03 0.47 1.03 1.12 0 0.612-0.43 1.12-1.03 1.12-0.643-0.0342-1.03-0.504-1.03-1.12m2.78 0v-1.73h-0.745v0.436c-0.251-0.328-0.609-0.504-1.07-0.504-0.962 0-1.71 0.754-1.71 1.8 0 1.05 0.745 1.8 1.71 1.8 0.498 0 0.851-0.181 1.07-0.504v0.436h0.745zm25 0c0-0.612 0.397-1.12 1.03-1.12 0.604 0 1.03 0.47 1.03 1.12 0 0.612-0.426 1.12-1.03 1.12-0.638-0.0342-1.03-0.504-1.03-1.12m2.74 0v-3.09h-0.745v1.8c-0.251-0.328-0.609-0.504-1.07-0.504-0.962 0-1.71 0.754-1.71 1.8 0 1.05 0.745 1.8 1.71 1.8 0.498 0 0.851-0.181 1.07-0.504v0.436h0.745zm-18.5-1.15c0.464 0 0.783 0.289 0.856 0.827h-1.78c0.0725-0.47 0.392-0.827 0.924-0.827m0-0.646c-0.996 0-1.71 0.72-1.71 1.8 0 1.08 0.711 1.8 1.75 1.8 0.498 0 0.991-0.142 1.39-0.47l-0.358-0.538c-0.285 0.215-0.643 0.362-0.996 0.362-0.459 0-0.924-0.22-1.03-0.827h2.52v-0.289c0.0338-1.12-0.604-1.84-1.57-1.84m8.93 1.8c0-0.612 0.392-1.12 1.03-1.12 0.609 0 1.03 0.47 1.03 1.12 0 0.612-0.426 1.12-1.03 1.12-0.638-0.0342-1.03-0.504-1.03-1.12m2.74 0v-1.73h-0.745v0.436c-0.247-0.328-0.604-0.504-1.07-0.504-0.958 0-1.71 0.754-1.71 1.8 0 1.05 0.75 1.8 1.71 1.8 0.503 0 0.856-0.181 1.07-0.504v0.436h0.745zm-6.9 0c0 1.05 0.711 1.8 1.81 1.8 0.498 0 0.851-0.108 1.21-0.397l-0.358-0.612c-0.28 0.215-0.566 0.323-0.89 0.323-0.604 0-1.03-0.431-1.03-1.12 0-0.646 0.426-1.08 1.03-1.12 0.324 0 0.609 0.108 0.89 0.323l0.358-0.607c-0.358-0.289-0.711-0.397-1.21-0.397-1.1 0-1.81 0.754-1.81 1.8m9.53-1.8c-0.43 0-0.711 0.215-0.89 0.504v-0.436h-0.745v3.46h0.745v-1.95c0-0.578 0.247-0.901 0.711-0.901 0.14 0 0.319 0.0391 0.464 0.0734l0.213-0.72c-0.145-0.0342-0.358-0.0342-0.498-0.0342m-19.8 0.357c-0.353-0.25-0.856-0.357-1.39-0.357-0.851 0-1.42 0.431-1.42 1.12 0 0.573 0.426 0.901 1.18 1.01l0.353 0.0342c0.392 0.0734 0.604 0.181 0.604 0.357 0 0.255-0.28 0.436-0.783 0.436-0.493 0-0.885-0.181-1.14-0.362l-0.353 0.578c0.392 0.289 0.924 0.431 1.46 0.431 0.996 0 1.57-0.47 1.57-1.12 0-0.612-0.464-0.935-1.18-1.04l-0.358-0.0342c-0.319-0.0391-0.566-0.108-0.566-0.328 0-0.25 0.247-0.397 0.638-0.397 0.43 0 0.856 0.181 1.07 0.289zm9.57-0.357c-0.426 0-0.711 0.215-0.885 0.504v-0.436h-0.75v3.46h0.75v-1.95c0-0.578 0.247-0.901 0.711-0.901 0.14 0 0.319 0.0391 0.459 0.0734l0.213-0.72c-0.14-0.0342-0.353-0.0342-0.498-0.0342m-6.33 0.0686h-1.21v-1.04h-0.745v1.04h-0.677v0.685h0.677v1.59c0 0.788 0.319 1.26 1.17 1.26 0.324 0 0.677-0.108 0.928-0.255l-0.213-0.646c-0.213 0.147-0.464 0.181-0.643 0.181-0.353 0-0.498-0.215-0.498-0.578v-1.55h1.21zm-11.1 3.46v-2.16c0-0.827-0.498-1.37-1.35-1.37-0.426 0-0.89 0.142-1.21 0.612-0.247-0.397-0.6-0.612-1.14-0.612-0.353 0-0.711 0.108-0.996 0.504v-0.436h-0.745v3.46h0.745v-1.91c0-0.612 0.319-0.896 0.822-0.896 0.493 0 0.745 0.323 0.745 0.896v1.91h0.745v-1.91c0-0.612 0.358-0.896 0.822-0.896 0.493 0 0.745 0.323 0.745 0.896v1.91z" style="fill:#fff"/>
   <path d="m208 117h11.2v20.4h-11.2z" style="fill:#ff5e00"/>
   <path d="m209 127c0-4.14 1.92-7.81 4.87-10.2-2.17-1.73-4.91-2.77-7.89-2.77-7.08 0-12.8 5.8-12.8 13 0 7.17 5.73 13 12.8 13 2.98 0 5.73-1.04 7.89-2.77-2.95-2.34-4.87-6.05-4.87-10.2" style="fill:#eb0019"/>
   <path d="m234 127c0 7.17-5.73 13-12.8 13-2.99 0-5.73-1.04-7.9-2.77 2.99-2.38 4.87-6.05 4.87-10.2 0-4.14-1.92-7.81-4.87-10.2 2.17-1.73 4.91-2.77 7.9-2.77 7.08 0 12.8 5.83 12.8 13" style="fill:#f59c19"/>
  </g>
  <image x="-210" y="36.7" width="17.7" height="11.8" style="image-rendering:optimizeQuality" preserveAspectRatio="none" xlink:href="images/hologram.png"/>
  <g transform="matrix(.941 0 0 .902 -376 -15.5)">
   <g transform="matrix(.548 0 0 .556 84.1 -15.3)" clip-path="url(#g)">
    <g clip-path="url(#f)">
     <path d="m84.4 126h-21.3v16.9h21.3z" style="fill:url(#b)"/>
    </g>
   </g>
   <g transform="matrix(.546 0 0 .554 119 54.2)" clip-path="url(#e)">
    <g clip-path="url(#d)">
     <g clip-path="url(#c)">
      <path d="m21.4 0.789h-21.3v16.9h21.3z" style="fill:url(#a)"/>
     </g>
    </g>
   </g>
  </g>
  <text transform="scale(1 .999)" x="-266.58945" y="62.346893" style="fill:#e6e6e6;font-family:Muli;font-size:4.09px;letter-spacing:0px;line-height:1.25;stroke-width:.0749;word-spacing:0px" xml:space="preserve"><tspan x="-266.58945" y="62.346893" style="fill:#e6e6e6;font-family:'Credit Card';stroke-width:.0749" ng-bind="TheM.cards.card(acc.cards[0].id).name_on_card.toUpperCase()"></tspan></text>
  <text transform="scale(1 .999)" x="-235.74196" y="58.442181" style="fill:#e6e6e6;font-family:Muli;font-size:8.99px;letter-spacing:0px;line-height:1.25;stroke-width:.164;word-spacing:0px" xml:space="preserve"><tspan x="-235.74196" y="58.442181" style="fill:#e6e6e6;font-family:'Credit Card';font-size:3.02px;stroke-width:.164" ng-bind="TheM.cards.card(acc.cards[0].id).dtsExpiry | cardExpiryFormatted">11/22</tspan></text>
  <text transform="scale(1 .999)" x="-264.25128" y="50.726711" style="fill:#e6e6e6;font-family:Muli;font-size:4.66px;letter-spacing:0px;line-height:1.25;stroke-width:.0852;word-spacing:0px" xml:space="preserve"><tspan x="-264.25128" y="50.726711" style="fill:#e6e6e6;font-family:'Credit Card';font-feature-settings:normal;font-size:4.66px;font-variant-caps:normal;font-variant-ligatures:normal;font-variant-numeric:normal;stroke-width:.0852" ng-bind="TheM.cards.card(acc.cards[0].id).num | cardNumFormatted"></tspan></text>
 </g>
</svg>
