<svg width1="85.8mm" height1="54.2mm" version="1.1" viewBox="0 0 85.8 54.2" xmlns="http://www.w3.org/2000/svg" xmlns:xlink="http://www.w3.org/1999/xlink">
  <defs>
    <clipPath id="clip4-1-5-0-9">
      <path d="m63 125h22v18h-22z" />
    </clipPath>
    <clipPath id="clip5-9-3-2-2">
      <path d="m66.2 126c-1.68 0-3.04 1.36-3.04 3.04v10.8c0 1.68 1.36 3.04 3.04 3.04h15.2c1.68 0 3.04-1.36 3.04-3.04v-10.8c0-1.68-1.36-3.04-3.04-3.04z" />
    </clipPath>
    <linearGradient id="linearGradient15768" x1=".107" x2=".503" gradientTransform="matrix(0 42.6 -42.6 0 73.8 121)" gradientUnits="userSpaceOnUse">
      <stop style="stop-color:#fdd673" offset="0" />
      <stop style="stop-color:#fecd69" offset=".5" />
      <stop style="stop-color:#fec45f" offset="1" />
    </linearGradient>
    <clipPath id="clip6-76-6-00">
      <rect width="22" height="18" />
    </clipPath>
    <clipPath id="clip7-1-8-5">
      <path d="m0.117 0.789h21.3v16.9h-21.3z" />
    </clipPath>
    <clipPath id="clip8-5-2-2">
      <path d="m18.7 11.6h-4.6c0.0156-0.129 0.0391-0.258 0.0391-0.391 0-0.816-0.289-1.61-0.82-2.24 0.531-0.633 0.82-1.42 0.82-2.24 0-0.227-0.0234-0.441-0.0664-0.652h4.62zm-8.06 2.73c-1.72 0-3.12-1.4-3.12-3.12 0-0.777 0.297-1.52 0.836-2.11l0.121-0.133-0.121-0.133c-0.539-0.582-0.836-1.33-0.836-2.11 0-1.72 1.4-3.12 3.12-3.12s3.11 1.4 3.11 3.12c0 0.777-0.297 1.52-0.832 2.11l-0.125 0.133 0.125 0.133c0.535 0.582 0.832 1.33 0.832 2.11 0 1.72-1.39 3.12-3.11 3.12m-3.46-2.73h-2.73v-5.52h2.76c-0.0391 0.211-0.0625 0.426-0.0625 0.652 0 0.816 0.289 1.61 0.82 2.24-0.531 0.633-0.82 1.42-0.82 2.24 0 0.133 0.0234 0.262 0.0391 0.391m14.2-5.52v-0.391h-3.9v-4.93h-0.391v4.93h-3.16c-0.414-1.32-1.58-2.3-3-2.43v-2.5h-0.391v2.47c-1.54 0.0273-2.83 1.05-3.27 2.46h-2.87v-4.93h-0.387v4.93h-3.93v0.391h3.93v5.52h-3.93v0.391h3.93v5.64h0.387v-5.64h2.79c0.352 1.54 1.71 2.69 3.35 2.72v2.93h0.391v-2.95c1.52-0.145 2.75-1.24 3.08-2.69h3.08v5.64h0.391v-5.64h3.9v-0.391h-2.32v-5.52z" />
    </clipPath>
    <linearGradient id="linearGradient15770" x1=".279" x2=".595" gradientTransform="matrix(0 53.3 -53.3 0 10.8 -14.1)" gradientUnits="userSpaceOnUse">
      <stop style="stop-color:#d9a143" offset="0" />
      <stop style="stop-color:#e1b556" offset=".5" />
      <stop style="stop-color:#e9ca69" offset="1" />
    </linearGradient>
  </defs>
  <g transform="translate(218 69)">
    <g transform="matrix(.943 0 0 .905 -320 -100)">
      <g transform="matrix(.548 0 0 .556 84.1 -15.3)" clip-path="url(#clip4-1-5-0-9)">
        <g clip-path="url(#clip5-9-3-2-2)">
          <path d="m84.4 126h-21.3v16.9h21.3z" style="fill:url(#linearGradient15768)" />
        </g>
      </g>
      <g transform="matrix(.546 0 0 .554 119 54.2)" clip-path="url(#clip6-76-6-00)">
        <g clip-path="url(#clip7-1-8-5)">
          <g clip-path="url(#clip8-5-2-2)">
            <path d="m21.4 0.789h-21.3v16.9h21.3z" style="fill:url(#linearGradient15770)" />
          </g>
        </g>
      </g>
    </g>
    <path d="m-212-45.5v6.03l-3.01-3.01z" style="fill:none;stroke-width:.192;stroke:#fff" />
    <rect x="-218" y="-69.5" width="85.8" height="54.2" style="fill:none" />
    <g transform="matrix(.107 0 0 .0982 -150 -65.9)" style="fill:#fff">
      <g transform="translate(-36.9 -26)" style="clip-rule:evenodd;fill-rule:evenodd;fill:#fff;image-rendering:optimizeQuality;shape-rendering:geometricPrecision">
        <g style="fill:#fff">
          <path class="fil0" d="m95.9 27.8v24.4c0 6.39-3.52 10.5-9.24 10.5-3.23 0-5.16-1.47-6.75-3.56-1.53 2.09-3.51 3.56-6.63 3.56-5.72 0-9.24-4.13-9.24-10.5v-24.4c0-0.453 0.284-0.735 0.737-0.735h3.57c0.453 0 0.737 0.282 0.737 0.735v24.6c0 3.51 1.47 5.49 4.19 5.49 2.49 0 4.14-1.98 4.14-5.49v-24.6c0-0.454 0.284-0.737 0.737-0.737h3.57c0.453 0 0.737 0.284 0.737 0.737v24.6c0 3.51 1.76 5.49 4.2 5.49 2.72 0 4.14-1.98 4.14-5.49v-24.6c0-0.452 0.284-0.736 0.738-0.736h3.57c0.511 0 0.794 0.284 0.794 0.736z" style="fill-rule:nonzero;fill:#fff" id="logow" />
          <path class="fil0" d="m157 37.5v24.3c0 0.509-0.283 0.792-0.794 0.792h-3.57c-0.455 0-0.737-0.284-0.737-0.792v-24.5c0-3.51-1.48-5.49-4.14-5.49-2.55 0-4.2 1.98-4.2 5.49v24.5c0 0.509-0.283 0.792-0.737 0.792h-3.57c-0.453 0-0.737-0.284-0.737-0.792v-24.5c0-3.51-1.7-5.49-4.14-5.49-2.78 0-4.19 1.98-4.19 5.49v24.5c0 0.509-0.284 0.792-0.737 0.792h-3.57c-0.453 0-0.737-0.284-0.737-0.792v-24.3c0-6.4 3.51-10.5 9.24-10.5 3.18 0 5.16 1.47 6.69 3.57 1.53-2.09 3.57-3.57 6.69-3.57 5.67 0 9.24 4.13 9.24 10.5z" style="fill-rule:nonzero;fill:#fff" id="logom" />
          <path class="fil0" d="m111 62.7c5.89 0 9.81-3.62 9.81-9.34 0-11.3-14.3-10.1-14.3-17.4 0-2.78 1.53-4.23 4.31-4.23l5.85 0.0162c0.352 0 0.638-0.28 0.638-0.626v-3.4c0-0.346-0.286-0.628-0.638-0.628l-5.91-0.0293c-5.61 0-9.35 3.45-9.35 8.9 0 10.7 14.2 9.24 14.2 17.4 0 3-1.59 4.61-4.59 4.62l-5.81-0.0065c-0.354-0.0014-0.64 0.28-0.64 0.626v3.48c0 0.346 0.286 0.626 0.638 0.626z" style="fill-rule:nonzero;fill:#fff" id="logos" />
          <path class="fil0" d="m52 37.2c0-3.4-1.92-5.37-4.48-5.37-3.18 0-5.02 1.97-5.02 5.37v12l4.56-2.48c0.284-0.159 0.635 0.0469 0.635 0.373v4.3c0 0.309-0.165 0.593-0.434 0.744l-3.89 2.11c-0.536 0.301-0.868 0.87-0.868 1.49v6.16c0 0.511-0.279 0.795-0.725 0.795h-3.57c-0.446 0-0.725-0.284-0.725-0.795v-24.4c0-6.24 4.03-10.4 10.2-10.4 5.75 0 9.4 4.19 9.4 10.4v24.4c0 0.511-0.279 0.795-0.78 0.795h-3.52c-0.446 0-0.782-0.284-0.782-0.795z" style="fill-rule:nonzero;fill:#fff" id="logoa" />
        </g>
      </g>
    </g>
    <g transform="translate(-231 -44.2)">
      <image x="78.5" y="-3.8" width="17.7" height="11.8" style="image-rendering:optimizeQuality" preserveAspectRatio="none" xlink:href="images/hologram.png" />
      <path
        d="m82.1 25.5c0-0.262 0.167-0.477 0.442-0.477 0.256 0 0.44 0.201 0.44 0.477 0 0.262-0.184 0.477-0.44 0.477-0.275-0.0146-0.442-0.216-0.442-0.477m1.19 0v-0.739h-0.318v0.186c-0.107-0.14-0.26-0.216-0.457-0.216-0.411 0-0.73 0.322-0.73 0.768 0 0.448 0.318 0.77 0.73 0.77 0.213 0 0.364-0.0774 0.457-0.216v0.186h0.318zm10.7 0c0-0.262 0.169-0.477 0.442-0.477 0.258 0 0.44 0.201 0.44 0.477 0 0.262-0.182 0.477-0.44 0.477-0.273-0.0146-0.442-0.216-0.442-0.477m1.17 0v-1.32h-0.318v0.77c-0.107-0.14-0.26-0.216-0.457-0.216-0.411 0-0.73 0.322-0.73 0.768 0 0.448 0.318 0.77 0.73 0.77 0.213 0 0.364-0.0774 0.457-0.216v0.186h0.318zm-7.92-0.492c0.198 0 0.335 0.123 0.366 0.354h-0.761c0.031-0.201 0.167-0.354 0.395-0.354m0-0.276c-0.426 0-0.73 0.308-0.73 0.768 0 0.462 0.304 0.77 0.746 0.77 0.213 0 0.424-0.0607 0.593-0.201l-0.153-0.23c-0.122 0.0921-0.275 0.155-0.426 0.155-0.196 0-0.395-0.0942-0.44-0.354h1.08v-0.123c0.0144-0.477-0.258-0.785-0.67-0.785m3.82 0.768c0-0.262 0.167-0.477 0.44-0.477 0.26 0 0.442 0.201 0.442 0.477 0 0.262-0.182 0.477-0.442 0.477-0.273-0.0146-0.44-0.216-0.44-0.477m1.17 0v-0.739h-0.318v0.186c-0.105-0.14-0.258-0.216-0.457-0.216-0.409 0-0.73 0.322-0.73 0.768 0 0.448 0.32 0.77 0.73 0.77 0.215 0 0.366-0.0774 0.457-0.216v0.186h0.318zm-2.95 0c0 0.448 0.304 0.77 0.775 0.77 0.213 0 0.364-0.046 0.517-0.169l-0.153-0.262c-0.12 0.0921-0.242 0.138-0.38 0.138-0.258 0-0.44-0.184-0.44-0.477 0-0.276 0.182-0.46 0.44-0.477 0.138 0 0.26 0.046 0.38 0.138l0.153-0.259c-0.153-0.123-0.304-0.169-0.517-0.169-0.471 0-0.775 0.322-0.775 0.768m4.07-0.768c-0.184 0-0.304 0.0921-0.38 0.216v-0.186h-0.318v1.48h0.318v-0.833c0-0.247 0.105-0.385 0.304-0.385 0.0599 0 0.136 0.0167 0.198 0.0314l0.0909-0.308c-0.062-0.0146-0.153-0.0146-0.213-0.0146m-8.48 0.153c-0.151-0.107-0.366-0.153-0.593-0.153-0.364 0-0.608 0.184-0.608 0.477 0 0.245 0.182 0.385 0.502 0.431l0.151 0.0146c0.167 0.0314 0.258 0.0774 0.258 0.153 0 0.109-0.12 0.186-0.335 0.186-0.211 0-0.378-0.0774-0.486-0.155l-0.151 0.247c0.167 0.123 0.395 0.184 0.622 0.184 0.426 0 0.67-0.201 0.67-0.477 0-0.262-0.198-0.4-0.502-0.446l-0.153-0.0146c-0.136-0.0167-0.242-0.046-0.242-0.14 0-0.107 0.105-0.169 0.273-0.169 0.184 0 0.366 0.0774 0.457 0.123zm4.09-0.153c-0.182 0-0.304 0.0921-0.378 0.216v-0.186h-0.32v1.48h0.32v-0.833c0-0.247 0.105-0.385 0.304-0.385 0.0599 0 0.136 0.0167 0.196 0.0314l0.0909-0.308c-0.0599-0.0146-0.151-0.0146-0.213-0.0146m-2.71 0.0293h-0.517v-0.446h-0.318v0.446h-0.289v0.293h0.289v0.678c0 0.337 0.136 0.538 0.5 0.538 0.138 0 0.289-0.046 0.397-0.109l-0.0909-0.276c-0.091 0.0628-0.198 0.0774-0.275 0.0774-0.151 0-0.213-0.0921-0.213-0.247v-0.661h0.517zm-4.73 1.48v-0.925c0-0.354-0.213-0.584-0.577-0.584-0.182 0-0.38 0.0607-0.519 0.262-0.105-0.169-0.256-0.262-0.486-0.262-0.151 0-0.304 0.046-0.426 0.216v-0.186h-0.318v1.48h0.318v-0.818c0-0.262 0.136-0.383 0.351-0.383 0.211 0 0.318 0.138 0.318 0.383v0.818h0.318v-0.818c0-0.262 0.153-0.383 0.351-0.383 0.211 0 0.318 0.138 0.318 0.383v0.818z"
        id="mc" style="fill:#fff" />
      <path d="m84.7 13.5h4.79v8.71h-4.79z" style="fill:#ff5e00" />
      <path d="m85 17.9c0-1.77 0.821-3.34 2.08-4.35-0.926-0.739-2.1-1.18-3.37-1.18-3.03 0-5.47 2.48-5.47 5.54 0 3.06 2.45 5.54 5.47 5.54 1.28 0 2.45-0.446 3.37-1.18-1.26-1-2.08-2.59-2.08-4.36" style="fill:#eb0019" />
      <path d="m96 17.9c0 3.06-2.45 5.54-5.47 5.54-1.28 0-2.45-0.446-3.38-1.18 1.28-1.02 2.08-2.59 2.08-4.36 0-1.77-0.821-3.34-2.08-4.35 0.928-0.739 2.1-1.18 3.38-1.18 3.03 0 5.47 2.49 5.47 5.54" style="fill:#f59c19" />
    </g>
    <text transform="scale(.977 1.02)" x="-212.9342" y="-21.001173" style="fill:#ffffff;font-family:Muli;font-size:5.15px;letter-spacing:0px;line-height:1.25;stroke-width:.0942;word-spacing:0px" xml:space="preserve">
      <tspan x="-212.9342" y="-21.001173" id="lastnameoncard" style="fill:#ffffff;font-family:effra;font-size:5.22px;stroke-width:.0942" ng-bind="TheM.cards.card(acc.cards[0].id).name_on_card"></tspan>
    </text>
  </g>
</svg>