<?xml version="1.0" encoding="UTF-8"?>
<svg width="77px" height="83px" viewBox="0 0 77 83" version="1.1" xmlns="http://www.w3.org/2000/svg" xmlns:xlink="http://www.w3.org/1999/xlink">
    <!-- Generator: Sketch 64 (93537) - https://sketch.com -->
    <title>avatar-2</title>
    <desc>Created with Sketch.</desc>
    <defs>
        <polygon id="path-1" points="0 0.0571903193 76.4735434 0.0571903193 76.4735434 75.8950198 0 75.8950198"></polygon>
    </defs>
    <g id="Referral-Teen" stroke="none" stroke-width="1" fill="none" fill-rule="evenodd">
        <g id="Referral-Teen-3" transform="translate(-247.000000, -471.000000)">
            <g id="avatar-2" transform="translate(247.000000, 471.000000)">
                <g id="Group-3" transform="translate(0.000000, 6.236554)">
                    <mask id="mask-2" fill="white">
                        <use xlink:href="#path-1"></use>
                    </mask>
                    <g id="Clip-2"></g>
                    <path d="M76.4735434,37.9761051 C76.4735434,58.9183992 59.3543345,75.8950198 38.2368169,75.8950198 C17.1192993,75.8950198 -0.000210913041,58.9183992 -0.000210913041,37.9761051 C-0.000210913041,17.0341097 17.1192993,0.0571903193 38.2368169,0.0571903193 C59.3543345,0.0571903193 76.4735434,17.0341097 76.4735434,37.9761051" id="Fill-1" fill="#EFEDE4" mask="url(#mask-2)"></path>
                </g>
                <path d="M43.7724707,54.6712561 C42.3557377,53.4243637 38.5803942,55.8300025 38.0416621,56.0687437 C37.5029299,55.8300025 34.6179408,53.7560317 33.1563134,54.9509329 C24.7164775,61.8496272 11.788412,61.5902688 9.06492198,68.7286007 C16.0786845,76.9267762 26.5420805,82.1315734 38.232689,82.1315734 C50.6262406,82.1315734 61.6401196,76.2828622 68.6273674,67.2184655 C64.7815187,61.0333056 51.3080924,61.3025244 43.7724707,54.6712561" id="Fill-4" fill="#C2CDD3"></path>
                <path d="M35.7920335,6.53526388 C35.7920335,6.53526388 37.0891487,-2.48849601 50.957585,0.671015152 C58.0156393,2.27885793 63.9293397,24.8851693 63.9293397,24.8851693 L35.7920335,6.53526388 Z" id="Fill-6" fill="#592F1B"></path>
                <path d="M57.8249136,11.4537807 C57.8249136,11.4537807 78.4268995,44.370186 55.8221437,63.3822321 L56.1080815,41.2489212 C56.1080815,41.2489212 56.1080815,60.2609674 53.5328332,62.814811 L50.3854081,40.39764 L53.8190724,12.5889219 L57.8249136,11.4537807 Z" id="Fill-8" fill="#592F1B"></path>
                <path d="M19.8509848,37.2845325 C20.6428126,39.9940509 22.7447117,41.5860572 24.5453065,40.8405512 C26.3459012,40.0947465 27.1636412,37.2937953 26.3718134,34.5842769 C25.5796843,31.8750574 23.4780865,30.2827522 21.6774917,31.028557 C19.8765956,31.774063 19.059157,34.5750141 19.8509848,37.2845325" id="Fill-10" fill="#F79673"></path>
                <path d="M49.5135839,36.0131684 C49.4246992,38.8329439 50.9288105,40.9893835 52.87373,40.8304219 C54.8183482,40.6711615 56.4670856,38.2565588 56.5559704,35.437082 C56.6448552,32.6173064 55.1404426,30.460568 53.1958243,30.6198284 C51.2512061,30.77879 49.6024687,33.1933928 49.5135839,36.0131684" id="Fill-12" fill="#F79673"></path>
                <path d="M24.3838073,26.8427276 L24.3277647,25.6890608 C23.9966312,26.3607632 23.6733317,27.0163304 23.3554556,27.6524756 L23.5597399,27.6587504 C23.7622165,27.43226 24.0400191,27.1463084 24.3838073,26.8427276" id="Fill-14" fill="#FFBF1F"></path>
                <path d="M22.9946738,28.3702828 C22.9636394,28.4315368 22.9329064,28.4915956 22.901872,28.5525508 C22.9253738,28.5489652 22.9488755,28.5468736 22.9723773,28.5435868 C22.9802112,28.4829304 22.9874425,28.425262 22.9946738,28.3702828" id="Fill-16" fill="#FFBF1F"></path>
                <path d="M23.5071021,28.5081491 C23.8439603,28.5156191 24.1678625,28.5741839 24.4724812,28.6751783 L24.4281895,27.7605515 C24.0175116,27.8764859 23.5923712,28.0070615 23.1512616,28.1552663 C23.1512616,28.1552663 23.2916695,27.9583571 23.559529,27.6586607 L23.355546,27.6523859 C23.2347229,27.8947127 23.1142012,28.1340515 22.9945834,28.3704023 C22.9873521,28.4250827 22.9801208,28.4830499 22.9725882,28.5434075 C23.1473447,28.5189059 23.3251143,28.5039659 23.5071021,28.5081491" id="Fill-18" fill="#E69C24"></path>
                <path d="M56.0578239,61.0852371 C56.4434935,61.2035619 56.8306696,61.3248746 57.2217626,61.4500718 C56.8454335,61.2952934 56.4561483,61.1727855 56.0578239,61.0852371" id="Fill-20" fill="#F05671"></path>
                <path d="M32.9455209,63.7230733 C35.8989061,65.1402817 39.3732465,65.5391797 43.9807925,63.7230733 L43.9807925,58.7361014 L43.9807925,56.6546606 L43.9807925,51.7749578 L43.9807925,51.7364126 C42.0138778,52.8231482 39.9276465,53.4207482 38.0122548,53.3780198 C36.3975648,53.2124846 34.6367422,52.561997 32.9455209,51.5347226 L32.9455209,51.5353202 L32.9455209,51.9581222 L32.9455209,56.507651 L32.9455209,58.871159 L32.9455209,63.7230733 Z" id="Fill-22" fill="#F79673"></path>
                <path d="M30.9852951,34.2682063 C30.1088008,34.2532663 29.4405077,33.1220095 29.4929347,31.7412547 C29.5453617,30.3607987 32.7196029,30.4148815 32.667176,31.7956363 C32.614749,33.1760923 31.8617895,34.2831463 30.9852951,34.2682063 M37.4711724,37.0832011 L37.5260098,34.6680007 C37.5416777,33.9726931 38.1283172,33.4163275 38.8297537,33.4318651 C39.5311902,33.4474027 40.0922189,34.0294651 40.0762498,34.7247727 L40.0217137,37.139973 C40.0057446,37.8355794 39.419105,38.391945 38.7179698,38.3764074 C38.016232,38.3608698 37.4555046,37.7788074 37.4711724,37.0832011 M47.3831815,32.1437383 C47.3310558,33.5241943 46.5777949,34.6312483 45.7013006,34.6166071 C44.8248063,34.6016671 44.1565132,33.4704103 44.2089402,32.0896555 C44.2613671,30.7091995 45.0143267,29.6021455 45.8911223,29.6170855 C46.7676167,29.6317267 47.4356084,30.7632823 47.3831815,32.1437383 M52.093171,39.7478994 C52.1064284,39.555771 52.1190831,39.3636426 52.1236027,39.1697214 L52.6650466,31.6453399 C52.7680927,28.5844327 54.5982153,25.0875764 52.9088018,23.9727536 C51.8018097,23.3903924 51.5493166,24.7200524 50.4429271,24.042374 C49.6354314,24.1819136 48.6812006,22.0162112 48.6812006,22.0162112 L46.3560349,20.758562 C41.6264606,17.7057225 34.2140725,19.6264089 31.5553629,15.7357341 C31.225736,15.2531721 28.1768373,12.1830021 27.8954191,11.7446625 C25.2816039,15.5926089 26.0652965,22.1656112 24.3276743,25.6890608 L24.4726017,28.6752679 L24.9311869,38.1400566 C24.9296804,38.2039998 24.9329948,38.2673454 24.9326935,38.3312886 C24.8914148,43.9908594 28.6974912,48.9542261 32.9455812,51.5346629 C34.6368025,52.5622361 36.3973238,53.2124249 38.012315,53.3779601 C39.9277068,53.4209873 42.013938,52.8230885 43.9808528,51.7363529 C44.1396402,51.6485057 44.2969211,51.5567741 44.4539006,51.4629509 C48.3949614,49.1033273 51.7451644,44.7841734 52.093171,39.7478994" id="Fill-24" fill="#FFAA82"></path>
                <path d="M60.0255502,33.1178263 C60.0098823,33.1181251 59.9945158,33.1187227 59.9785467,33.1187227 C59.9948171,33.1190215 60.009581,33.1178263 60.0255502,33.1178263" id="Fill-26" fill="#E69C24"></path>
                <path d="M38.7178192,38.3764373 L38.7178192,38.3764373 C39.4192557,38.3919749 40.0058952,37.8356093 40.0215631,37.1400029 L40.0764004,34.7248026 C40.0920683,34.029495 39.5310396,33.4474326 38.8299044,33.431895 C38.1281666,33.4163574 37.541527,33.972723 37.5258592,34.6680306 L37.4710218,37.0832309 C37.455354,37.7788373 38.0163826,38.3608997 38.7178192,38.3764373" id="Fill-28" fill="#F79673"></path>
                <path d="M43.8912148,41.1424943 L33.2045523,41.2294693 C32.7116184,41.2333537 32.3530662,41.6958961 32.4787101,42.1685977 C32.940911,43.9091077 34.3971149,47.4773772 38.5656605,47.4436129 C42.7269748,47.4098485 44.1723317,43.8299257 44.6306156,42.0786589 C44.7553556,41.6017741 44.3877643,41.1386341 43.8912148,41.1424943" id="Fill-30" fill="#FFFFFF"></path>
                <path d="M28.9247048,11.6295947 C25.4910405,22.4667717 49.3859816,15.0284446 52.3450915,37.6682216 C52.3450915,37.6682216 67.8396674,6.70357792 40.9425299,4.24056955 C40.9425299,4.24056955 30.2121783,3.41976596 28.9247048,11.6295947" id="Fill-32" fill="#663A22"></path>
                <path d="M35.7920335,4.95225138 C35.7920335,4.95225138 11.2131316,5.60901377 23.9742745,39.5431318 L25.4654297,43.0459641 C28.3392705,40.109059 20.2516593,15.8414197 35.7920335,4.95225138" id="Fill-34" fill="#663A22"></path>
                <path d="M27.2960645,27.9773608 C29.5190879,27.4499788 31.5188449,27.3519724 33.72379,27.6958912 L33.7225848,25.6700272 C31.4588853,25.20121 29.2439971,25.2995152 27.0797279,25.9864564 L27.2960645,27.9773608 Z" id="Fill-36" fill="#744628"></path>
                <path d="M48.3511819,27.9773608 C46.1281585,27.4499788 44.1284015,27.3519724 41.9234563,27.6958912 L41.9243603,25.6700272 C44.1880598,25.20121 46.4032493,25.2995152 48.5675184,25.9864564 L48.3511819,27.9773608 Z" id="Fill-38" fill="#744628"></path>
                <path d="M32.5903735,55.5300073 L26.8279279,58.8042576 C26.8279279,58.8042576 28.2088057,73.0707623 39.2064143,72.9724571 C50.354675,72.8729567 50.7439602,58.9288572 50.7439602,58.9288572 L43.4279895,54.2024389 L32.5903735,55.5300073 Z" id="Fill-40" fill="#F0FDFF"></path>
                <path d="M29.0746037,32.496143 C29.0824377,34.1153402 29.9176533,35.424383 30.9396776,35.4193181 C31.9620033,35.4145226 32.7842628,34.097711 32.7764289,32.478215 C32.768595,30.8590178 31.9333794,29.5499751 30.911355,29.5550399 C29.8890294,29.5598355 29.0667698,30.876647 29.0746037,32.496143" id="Fill-42" fill="#242D22"></path>
                <path d="M44.2335567,32.1608595 C44.1594359,33.7785627 44.926858,35.1273459 45.9479785,35.1736599 C46.9694002,35.2193763 47.8570428,33.9455919 47.931465,32.3278887 C48.0055858,30.7101856 47.2381637,29.3614024 46.2170432,29.3153872 C45.1956215,29.2690732 44.3076776,30.5431564 44.2335567,32.1608595" id="Fill-44" fill="#242D22"></path>
                <path d="M33.1563436,54.9507835 L28.599718,57.9322098 C28.599718,57.9322098 31.326221,70.2302201 39.2628787,70.2302201 C46.3088808,70.2302201 48.6349503,57.6214579 48.6349503,57.6214579 L42.973743,53.0405551 L33.1563436,54.9507835 Z" id="Fill-46" fill="#F79673"></path>
            </g>
        </g>
    </g>
</svg>