<?xml version="1.0" encoding="UTF-8"?>
<svg width="77px" height="83px" viewBox="0 0 77 83" version="1.1" xmlns="http://www.w3.org/2000/svg" xmlns:xlink="http://www.w3.org/1999/xlink">
    <!-- Generator: Sketch 64 (93537) - https://sketch.com -->
    <title>avatar-1</title>
    <desc>Created with Sketch.</desc>
    <defs>
        <polygon id="path-1" points="9.00000036e-05 0.0575400023 76.142403 0.0575400023 76.142403 76.199943 9.00000036e-05 76.199943"></polygon>
        <polygon id="path-3" points="0.229530009 0.178559983 52.5021321 0.178559983 52.5021321 28.8000011 0.229530009 28.8000011"></polygon>
        <polygon id="path-5" points="0.0624137552 0.147600006 45.4610418 0.147600006 45.4610418 20.7090071 0.0624137552 20.7090071"></polygon>
    </defs>
    <g id="Referral-Teen" stroke="none" stroke-width="1" fill="none" fill-rule="evenodd">
        <g id="Referral-Teen-3" transform="translate(-158.000000, -471.000000)">
            <g id="avatar-1" transform="translate(158.000000, 471.000000)">
                <g id="Group-3" transform="translate(0.000000, 5.852400)">
                    <mask id="mask-2" fill="white">
                        <use xlink:href="#path-1"></use>
                    </mask>
                    <g id="Clip-2"></g>
                    <path d="M76.142493,38.1287415 C76.142493,59.1548424 59.0973923,76.199943 38.0712915,76.199943 C17.0451907,76.199943 9.00000036e-05,59.1548424 9.00000036e-05,38.1287415 C9.00000036e-05,17.1026407 17.0451907,0.0575400023 38.0712915,0.0575400023 C59.0973923,0.0575400023 76.142493,17.1026407 76.142493,38.1287415" id="Fill-1" fill="#EFEDE4" mask="url(#mask-2)"></path>
                </g>
                <g id="Group-6" transform="translate(12.000000, 53.252402)">
                    <mask id="mask-4" fill="white">
                        <use xlink:href="#path-3"></use>
                    </mask>
                    <g id="Clip-5"></g>
                    <path d="M52.2636321,18.3567307 C52.3428321,18.2469307 52.4244321,18.1407307 52.5021321,18.0288307 C49.251032,11.5833305 38.5650315,8.13603032 31.6413313,2.99913012 C30.2676312,1.98003008 27.0594311,-0.0338700013 26.5881311,0.197730008 C26.116831,-0.0338700013 22.7394309,1.88973008 21.3657308,2.90883012 C13.9350306,8.42193033 2.5944301,11.1393304 0.229530009,18.5298307 C0.378330015,18.7227307 0.530130021,18.9099308 0.681930027,19.0965308 C7.41813029,25.130431 16.3158306,28.8000311 26.071231,28.8000311 C36.2193314,28.8000311 45.4389318,24.828931 52.2636321,18.3567307" id="Fill-4" fill="#6573FC" mask="url(#mask-4)"></path>
                </g>
                <path d="M33.6072313,55.5876922 L29.9724312,58.0005923 C29.9724312,58.0005923 28.7082311,67.3260927 37.7475315,67.3260927 C47.6085319,67.3260927 46.7868319,57.7395923 46.7868319,57.7395923 L42.0459317,54.8049922 L33.6072313,55.5876922 Z" id="Fill-7" fill="#F0FDFF"></path>
                <path d="M50.120852,36.0457814 C49.984352,39.2923816 51.6763521,41.7946817 53.8999521,41.6344817 C56.1235522,41.4745816 58.0369523,38.7127815 58.1734523,35.4658814 C58.3099523,32.2192813 56.6182522,29.7169812 54.3946522,29.8771812 C52.1707521,30.0370812 50.257652,32.7988813 50.120852,36.0457814" id="Fill-9" fill="#EA8668"></path>
                <path d="M19.4748608,36.8961315 C20.3046608,40.0383316 22.6608609,41.9292317 24.738061,41.1192316 C26.8152611,40.3095316 27.8265611,37.1058315 26.9967611,33.9636313 C26.167261,30.8211312 23.8107609,28.9305311 21.7335609,29.7402312 C19.6563608,30.5502312 18.6450607,33.7539313 19.4748608,36.8961315" id="Fill-11" fill="#EA8668"></path>
                <path d="M44.4689118,58.8926723 C44.2763118,66.1010726 31.9487113,66.6995727 32.1413113,59.4911724 L33.1136113,45.0956718 L44.6288118,44.2595718 C43.7696117,50.492672 43.5761117,55.7681722 44.4689118,58.8926723" id="Fill-13" fill="#EA8668"></path>
                <path d="M53.6237421,20.2678208 C53.9120421,14.5603206 49.454642,10.4455204 43.7030417,9.07932036 C42.1928417,7.97892032 40.4396416,7.22472029 38.5508415,6.91062027 L38.5508415,6.89292027 C38.5355415,6.89562027 38.5205415,6.89922027 38.5049415,6.90162027 C38.4896415,6.89922027 38.4746415,6.89562027 38.4593415,6.89292027 L38.4593415,6.91062027 C36.5705415,7.22472029 34.8173414,7.97892032 33.3071413,9.07932036 C27.5555411,10.4455204 22.5182409,13.7626205 22.8065409,19.4701208 C22.8065409,19.4701208 19.1012408,53.6374221 38.4593415,53.4157221 L38.4593415,53.4168219 C38.4749415,53.4168219 38.4896415,53.4160221 38.5049415,53.4160221 C38.5205415,53.4160221 38.5352415,53.4168219 38.5508415,53.4168219 L38.5508415,53.4157221 C57.9089423,53.6374221 53.6237421,20.2678208 53.6237421,20.2678208" id="Fill-15" fill="#FFAA82"></path>
                <path d="M28.8299411,32.2174213 C28.8377411,33.8434213 29.6693412,35.1574214 30.6869412,35.1523362 C31.7048413,35.1475214 32.5235413,33.8254213 32.5157413,32.1994213 C32.5079413,30.5737212 31.6763413,29.2594212 30.6587412,29.2645064 C29.6408412,29.2693212 28.8221411,30.5914212 28.8299411,32.2174213" id="Fill-17" fill="#242D22"></path>
                <path d="M43.9232417,31.8809413 C43.8494417,33.5051413 44.6135418,34.8593414 45.6302418,34.9055414 C46.6472419,34.9517414 47.5313419,33.6725413 47.6051419,32.0483413 C47.6792419,30.4244412 46.9148419,29.0699412 45.8981418,29.0237412 C44.8811418,28.9775412 43.9970417,30.2567412 43.9232417,31.8809413" id="Fill-19" fill="#242D22"></path>
                <path d="M27.1185611,27.0887111 C29.3931612,26.5445111 31.4388612,26.4434111 33.6945613,26.7983111 L33.6936613,24.708511 C31.3776612,24.224611 29.1117612,24.326011 26.8974611,25.034911 L27.1185611,27.0887111 Z" id="Fill-21" fill="#7F4C18"></path>
                <path d="M41.8748117,26.9750411 C44.3432118,26.5169411 46.5425118,26.5196411 48.9419119,27.0200411 L49.0544119,24.789541 C46.5974119,24.148441 44.1623118,24.134041 41.7494117,24.770941 L41.8748117,26.9750411 Z" id="Fill-23" fill="#7F4C18"></path>
                <path d="M43.7143517,41.2139116 L32.8567513,41.0794485 C32.3560513,41.0732116 31.9819513,41.5394117 32.0995513,42.0263117 C32.5324513,43.8191117 33.9364513,47.5046119 38.1715515,47.5571119 C42.3997517,47.6093119 43.9432517,43.9724117 44.4457518,42.1883117 C44.5822518,41.7023117 44.2189518,41.2202116 43.7143517,41.2139116" id="Fill-25" fill="#FFFFFF"></path>
                <path d="M21.9813609,34.4117414 L16.0305606,17.3246407 L23.3016609,7.92744032 L23.5212943,34.1525414 C23.5287609,35.0513414 22.2687609,35.2637414 21.9813609,34.4117414" id="Fill-27" fill="#A0621F"></path>
                <path d="M54.3949822,35.1081314 L59.3596824,17.9103307 L51.9538821,8.70333035 L52.8454821,34.9143314 C52.8760821,35.8128314 54.1438822,35.9712314 54.3949822,35.1081314" id="Fill-29" fill="#A0621F"></path>
                <path d="M37.8270015,39.3498916 L37.8270015,39.3498916 C38.5488015,39.3660916 39.1524016,38.7888915 39.1686016,38.0673915 L39.2250016,35.5611914 C39.2412016,34.8393914 38.6640015,34.2357914 37.9422015,34.2195914 C37.2207015,34.2033914 36.6168015,34.7805914 36.6006015,35.5020914 L36.5445015,38.0082915 C36.5280015,38.7300915 37.1055015,39.3336916 37.8270015,39.3498916" id="Fill-31" fill="#F79673"></path>
                <g id="Group-35" transform="translate(14.100001, 0.152400)">
                    <mask id="mask-6" fill="white">
                        <use xlink:href="#path-5"></use>
                    </mask>
                    <g id="Clip-34"></g>
                    <path d="M22.6298409,2.75805011 C26.145241,1.03515004 36.2780414,-0.233550009 40.9199416,7.90635031 C42.1148417,10.0015504 42.3656417,13.0279505 42.3656417,13.0279505 C42.3656417,13.0279505 10.9121404,19.2637508 1.76214007,7.04955028 C1.76214007,7.04955028 14.8733406,6.55965026 22.6298409,2.75805011 M3.79884015,16.5805507 C4.33494017,17.1052507 4.89174019,17.5330507 5.44374022,17.8558507 C6.96504028,18.3463507 8.50134034,18.7603507 10.0400404,19.1086508 C20.8220408,21.5497509 31.7348413,20.7256508 38.5424415,19.7281508 C42.7364417,19.1134508 45.3704418,18.4345507 45.4553418,18.4126507 C45.4568418,18.4120507 45.4610418,18.4111507 45.4610418,18.4111507 C45.4610418,18.4111507 45.0644418,13.6240505 43.1744417,10.3102504 C35.8328414,-2.5636501 19.8065408,-0.557250022 14.2466406,2.16795009 C5.25954021,6.57285026 1.85814007,6.26175025 0.680040027,5.78055023 C0.474240019,5.95905024 0.271440011,6.14145024 0.0683400027,6.32415025 C-0.0531600021,11.0002504 1.71054007,14.5354506 3.79884015,16.5805507" id="Fill-33" fill="#B97826" mask="url(#mask-6)"></path>
                </g>
                <path d="M56.4655222,13.1804405 C56.4655222,13.1804405 56.2147222,10.1537404 55.0198222,8.05854032 C50.377922,-0.0813600032 40.2451216,1.18734005 36.7297215,2.91054012 C28.9732212,6.71214027 15.8623206,7.20174029 15.8623206,7.20174029 C25.012321,19.4159408 56.4655222,13.1804405 56.4655222,13.1804405" id="Fill-36" fill="#C97F2F"></path>
            </g>
        </g>
    </g>
</svg>