<?xml version="1.0" encoding="UTF-8"?>
<svg width="77px" height="83px" viewBox="0 0 77 83" version="1.1" xmlns="http://www.w3.org/2000/svg" xmlns:xlink="http://www.w3.org/1999/xlink">
    <!-- Generator: Sketch 64 (93537) - https://sketch.com -->
    <title>avatar-3</title>
    <desc>Created with Sketch.</desc>
    <defs>
        <polygon id="path-1" points="0 0.0588531688 76.9417953 0.0588531688 76.9417953 77.938963 0 77.938963"></polygon>
        <polygon id="path-3" points="0.231757874 0.182450936 52.4123529 0.182450936 52.4123529 29.4572691 0.231757874 29.4572691"></polygon>
        <polygon id="path-5" points="0.230391668 0.221850058 39.3319896 0.221850058 39.3319896 22.3270143 0.230391668 22.3270143"></polygon>
    </defs>
    <g id="Referral-Teen" stroke="none" stroke-width="1" fill="none" fill-rule="evenodd">
        <g id="Referral-Teen-3" transform="translate(-336.000000, -471.000000)">
            <g id="avatar-3" transform="translate(336.000000, 471.000000)">
                <g id="Group-3" transform="translate(0.000000, 4.380848)">
                    <mask id="mask-2" fill="white">
                        <use xlink:href="#path-1"></use>
                    </mask>
                    <g id="Clip-2"></g>
                    <path d="M76.9420378,38.9989081 C76.9420378,60.5048624 59.7179866,77.938963 38.4711402,77.938963 C17.2239906,77.938963 -6.06299213e-05,60.5048624 -6.06299213e-05,38.9989081 C-6.06299213e-05,17.4929538 17.2239906,0.0588531688 38.4711402,0.0588531688 C59.7179866,0.0588531688 76.9420378,17.4929538 76.9420378,38.9989081" id="Fill-1" fill="#EFEDE4" mask="url(#mask-2)"></path>
                </g>
                <path d="M50.564748,62.5115162 C50.564748,62.5115162 33.7026575,58.9361401 27.997685,63.2148085 L27.9555472,53.8587502 C27.9555472,53.8587502 33.438311,50.7390413 48.2723307,53.0422315 L50.564748,62.5115162 Z" id="Fill-4" fill="#C62C3F"></path>
                <g id="Group-8" transform="translate(12.125984, 52.862604)">
                    <mask id="mask-4" fill="white">
                        <use xlink:href="#path-3"></use>
                    </mask>
                    <g id="Clip-7"></g>
                    <path d="M52.3901634,18.9804538 C52.4701949,18.8681479 52.3019469,18.9224598 52.3807657,18.808006 C49.0952303,12.2154078 38.9697303,8.32152509 31.9733406,3.06769841 C30.5852185,2.02503382 27.3436398,-0.0348270837 26.8673917,0.202058455 C26.3908406,-0.0348270837 22.9782854,1.93267301 21.5901634,2.97503075 C14.0814508,8.61394985 2.62148622,11.3936728 0.231757874,18.9528376 C0.382423228,19.1501399 0.53551378,19.3413053 0.68890748,19.5321639 C7.49582874,25.7037686 16.4869429,29.4574225 26.345065,29.4574225 C36.5994035,29.4574225 45.493813,25.6003613 52.3901634,18.9804538" id="Fill-6" fill="#F7F6F5" mask="url(#mask-4)"></path>
                </g>
                <path d="M29.3205996,58.6681403 C22.3505839,62.6414964 14.3143909,65.6264996 12.3578634,71.8152877 C12.5085287,72.0125901 12.6616193,72.2040623 12.815013,72.3949209 C18.7370406,77.7641219 26.3121429,81.30329 34.6733122,82.1323894 C35.9225917,82.2566622 30.8639343,57.7881044 29.3205996,58.6681403" id="Fill-9" fill="#CD3C41"></path>
                <path d="M50.6470531,35.2632968 C50.5091201,38.5839902 52.2188839,41.1433973 54.4658287,40.9795412 C56.7130768,40.815992 58.6462618,37.9911626 58.784498,34.6701624 C58.9224311,31.349469 57.2126673,28.7900619 54.9654193,28.953918 C52.7184744,29.1174672 50.7849862,31.9422966 50.6470531,35.2632968" id="Fill-11" fill="#EA8668"></path>
                <path d="M19.6793205,36.1330533 C20.5178323,39.3469641 22.8987693,41.281018 24.9977772,40.4525323 C27.096785,39.6243534 28.1187024,36.3475391 27.2801906,33.1336283 C26.4419819,29.9194107 24.0607417,27.9856637 21.9617339,28.8138425 C19.862726,29.6423282 18.8408087,32.9191426 19.6793205,36.1330533" id="Fill-13" fill="#EA8668"></path>
                <path d="M44.9357752,58.6315949 C44.7411531,66.0045039 32.2841295,66.6166628 32.4784484,59.2437538 L33.4609563,44.519722 L45.0973539,43.6645406 C44.2294366,50.0398914 44.033602,55.4357881 44.9357752,58.6315949" id="Fill-15" fill="#EA8668"></path>
                <path d="M54.1865673,19.1252547 C54.4781972,13.287499 49.9740004,9.07879169 44.1620161,7.68141249 C42.6356579,6.55589934 40.8643547,5.7844871 38.9554217,5.46321876 L38.9554217,5.44511482 C38.939961,5.44787644 38.9248035,5.45155859 38.9093429,5.45401337 C38.8938823,5.45155859 38.8787248,5.44787644 38.8632642,5.44511482 L38.8632642,5.46321876 C36.9543311,5.7844871 35.1827248,6.55589934 33.6566697,7.68141249 C27.8446854,9.07879169 22.7545004,12.471594 23.0461303,18.3093497 C23.0461303,18.3093497 19.3016264,53.2564104 38.8632642,53.0296508 L38.8632642,53.0307757 C38.879028,53.0307757 38.8938823,53.0299577 38.9093429,53.0299577 C38.9248035,53.0299577 38.9396579,53.0307757 38.9554217,53.0307757 L38.9554217,53.0296508 C58.5170594,53.2564104 54.1865673,19.1252547 54.1865673,19.1252547" id="Fill-17" fill="#FFAA82"></path>
                <path d="M29.1326165,31.3475666 C29.1404984,33.0106749 29.9808291,34.3546628 31.0091126,34.3494615 C32.0376992,34.3445368 32.8652976,32.9922641 32.8571126,31.3291558 C32.8492307,29.6663543 32.0089,28.3220596 30.9806165,28.3272608 C29.9520299,28.3321855 29.1247346,29.6844582 29.1326165,31.3475666" id="Fill-19" fill="#242D22"></path>
                <path d="M44.3842248,31.0034075 C44.30965,32.6646747 45.0820752,34.04978 46.1094492,34.0970344 C47.1368232,34.1442888 48.0302051,32.8358951 48.1047799,31.1746278 C48.1796579,29.5136675 47.4072327,28.1282553 46.3798587,28.0810009 C45.3524846,28.0337465 44.4591028,29.3421402 44.3842248,31.0034075" id="Fill-21" fill="#242D22"></path>
                <path d="M27.4034209,26.10181 C29.701598,25.5451903 31.7687752,25.441783 34.0484602,25.8047825 L34.0472476,23.6672894 C31.7069327,23.1723459 29.4175469,23.27606 27.1799996,24.0011385 L27.4034209,26.10181 Z" id="Fill-23" fill="#7F4C18"></path>
                <path d="M42.3145921,25.9855458 C44.8089071,25.5169911 47.0309937,25.5197527 49.4558874,26.0315728 L49.5695685,23.7501687 C47.0867732,23.0944376 44.6258047,23.0797089 42.1875724,23.7311442 L42.3145921,25.9855458 Z" id="Fill-25" fill="#7F4C18"></path>
                <path d="M44.1731417,40.549373 L33.2018543,40.4118412 C32.6958976,40.405462 32.3178701,40.8823016 32.4364016,41.3803135 C32.8741496,43.2140285 34.2928898,46.9836384 38.5724528,47.0373366 C42.8450433,47.0907279 44.404748,43.3708271 44.9122205,41.5460106 C45.0504567,41.0489192 44.6833425,40.5558168 44.1731417,40.549373" id="Fill-27" fill="#FFFFFF"></path>
                <path d="M22.2119839,33.591965 L18.4183697,15.584675 L23.5461453,6.50324447 L23.7680845,33.3268496 C23.7756295,34.2461618 22.5024012,34.4634092 22.2119839,33.591965" id="Fill-29" fill="#744628"></path>
                <path d="M54.9660559,34.3042479 L57.4488512,19.8039072 L52.4993276,7.29684171 L53.4002882,34.106025 C53.4312094,35.0250304 54.7123197,35.1870454 54.9660559,34.3042479" id="Fill-31" fill="#744628"></path>
                <path d="M38.2241339,38.6428127 L38.2241339,38.6428127 C38.9535118,38.6593824 39.5634488,38.0690096 39.580122,37.3310437 L39.636811,34.7676476 C39.6531811,34.0293748 39.0699213,33.4119995 38.3405433,33.3954298 C37.6114685,33.3788601 37.0012283,33.9692328 36.9848583,34.7071988 L36.9281693,37.2705949 C36.9117992,38.0088677 37.4950591,38.626243 38.2241339,38.6428127" id="Fill-33" fill="#F79673"></path>
                <path d="M43.8948807,19.8055949 L53.3264713,28.1030325 C53.6690303,28.4043558 54.2004516,28.1309555 54.1619516,27.6731405 L53.1858098,16.0491794 L43.8948807,19.8055949 Z" id="Fill-35" fill="#744628"></path>
                <path d="M34.2538744,18.6144779 L49.806965,32.6186477 C50.1498272,32.919971 50.6809453,32.6465708 50.6424453,32.1887557 L49.3346579,18.3199052 L34.2538744,18.6144779 Z" id="Fill-37" fill="#744628"></path>
                <g id="Group-41" transform="translate(18.188976, 0.084996)">
                    <mask id="mask-6" fill="white">
                        <use xlink:href="#path-5"></use>
                    </mask>
                    <g id="Clip-40"></g>
                    <path d="M4.20774685,21.4316361 C2.3570185,22.0333622 0.449904331,20.7166836 0.301361024,18.7547068 C-0.173977559,12.4615908 1.28993189,0.678990052 18.797428,0.23406255 C42.9484476,-0.379630555 39.1084516,22.3270143 39.1084516,22.3270143 C26.4710539,18.24841 14.9128689,17.9501551 4.20774685,21.4316361" id="Fill-39" fill="#24B3AB" mask="url(#mask-6)"></path>
                </g>
                <path d="M20.4647205,22.1051643 C20.4647205,22.1051643 8.55275984,15.0004392 19.3991496,7.10067471 C30.6890472,-1.12219921 57.4995984,22.2073442 57.4995984,22.2073442 C43.6841614,18.5288677 30.7342165,18.9526228 20.4647205,22.1051643" id="Fill-42" fill="#FF547F"></path>
                <polygon id="Fill-44" fill="#AD3140" points="33.8663583 76.7262441 21.1495354 76.7262441 20.9837126 75.1932387 33.6256575 75.1932387"></polygon>
                <path d="M23.9145327,79.4078682 C23.7393122,75.6410199 23.530139,71.8198598 23.2948949,67.9431604 L25.3520681,65.5786009 C25.7431311,70.5212851 26.0790209,75.4431038 26.3439736,80.3277941 L23.9145327,79.4078682 Z" id="Fill-46" fill="#AD3140"></path>
                <path d="M30.4396461,81.4413096 C30.3641618,76.6956208 30.2665476,71.8750614 30.1528665,67.0001903 L32.4534689,67.0001903 C32.5762445,72.0588625 32.6838626,77.0527902 32.7711697,81.9589597 L30.4396461,81.4413096 Z" id="Fill-48" fill="#AD3140"></path>
                <polygon id="Fill-50" fill="#AD3140" points="21.2643382 76.7653363 14.0227004 68.7713699 15.3617122 67.2371372 22.1067909 75.2952345"></polygon>
                <path d="M47.6158602,58.6681403 C54.585876,62.6414964 62.6220689,65.6264996 64.5782933,71.8152877 C64.4279311,72.0125901 64.2745374,72.2040623 64.1211437,72.3949209 C58.1994193,77.7641219 50.6240138,81.30329 42.2631476,82.1323894 C41.0138681,82.2566622 46.0725256,57.7881044 47.6158602,58.6681403" id="Fill-52" fill="#CD3C41"></path>
                <polygon id="Fill-54" fill="#AD3140" points="43.0697984 76.7262441 55.7866213 76.7262441 55.9524441 75.1932387 43.3108024 75.1932387"></polygon>
                <path d="M53.021624,79.4078682 C53.1971476,75.6410199 53.4063209,71.8198598 53.6412618,67.9431604 L51.5843917,65.5786009 C51.1930256,70.5212851 50.857439,75.4431038 50.5924862,80.3277941 L53.021624,79.4078682 Z" id="Fill-56" fill="#AD3140"></path>
                <path d="M46.4965106,81.4413096 C46.572298,76.6956208 46.6699122,71.8750614 46.7835933,67.0001903 L44.4829909,67.0001903 C44.3602154,72.0588625 44.2525972,77.0527902 44.1652902,81.9589597 L46.4965106,81.4413096 Z" id="Fill-58" fill="#AD3140"></path>
                <polygon id="Fill-60" fill="#AD3140" points="55.6721217 76.7653363 62.9137594 68.7713699 61.5747476 67.2371372 54.8296689 75.2952345"></polygon>
                <polygon id="Fill-62" fill="#AD3140" points="51.9164921 71.8143058 57.7709173 64.2008292 55.9662677 63.0946473 50.9312559 69.5129567"></polygon>
                <polygon id="Fill-64" fill="#AD3140" points="25.3592224 71.8143058 19.5047972 64.2008292 21.3094469 63.0946473 26.3444587 69.5129567"></polygon>
                <path d="M29.0029291,53.0422622 C31.7934213,61.9260836 33.9527559,71.8246466 34.9537559,81.0171556 C35.0083228,81.5191565 34.2901614,81.6560101 34.1588976,81.1690446 L30.9433898,69.2680011 L29.6453031,68.1354305 L23.0875709,73.1296649 L23.5695787,56.5519731 L29.0029291,53.0422622 Z" id="Fill-66" fill="#FF547F"></path>
                <path d="M48.2724823,53.0422622 C45.5198839,61.8057998 43.3811634,71.5567695 42.363187,80.6431096 C42.3031634,81.1813185 43.0737697,81.3286048 43.2147343,80.806352 L46.3320217,69.2680011 L47.6301083,68.1354305 L54.1881437,73.1296649 L53.7061358,56.5519731 L48.2724823,53.0422622 Z" id="Fill-68" fill="#FF547F"></path>
            </g>
        </g>
    </g>
</svg>