<?xml version="1.0" encoding="UTF-8"?>
<svg width="100px" height="100px" viewBox="0 0 100 100" version="1.1" xmlns="http://www.w3.org/2000/svg" xmlns:xlink="http://www.w3.org/1999/xlink">
    <!-- Generator: Sketch 63.1 (92452) - https://sketch.com -->
    <title>ico-referral</title>
    <desc>Created with Sketch.</desc>
    <g id="Referral-Teen" stroke="none" stroke-width="1" fill="none" fill-rule="evenodd">
        <g id="Referral-Teen-6" transform="translate(-283.000000, -152.000000)" fill="#FFCA6D">
            <path d="M347.58201,152 C341.76171,152 336.76201,155.4531 334.42601,160.3984 C326.69551,160.74996 320.50001,167.0976 320.50001,174.9144 C320.50001,179.2855 322.47271,183.1683 325.53121,185.8444 C318.54291,186.80143 311.97221,189.0788 306.44921,192.5202 C303.91011,190.5593 300.81641,189.4968 297.58201,189.4968 C296.42971,189.4968 295.50001,190.43039 295.50001,191.5788 C295.50001,194.4538 296.37892,197.2663 298.00781,199.6686 C295.21481,202.9303 293.24221,206.5631 292.21481,210.3286 L291.3359,210.3286 C286.7382,210.33251 283,214.0708 283,218.6684 C283,223.3051 285.3516,227.5356 289.2852,229.9924 L303.8322,239.0549 L303.8322,249.9179 C303.8322,251.0702 304.76189,251.9999 305.9142,251.9999 L314.2462,251.9999 C315.03526,251.9999 315.754,251.55459 316.1095,250.8476 L318.5743,245.9179 C327.7931,248.4609 338.1953,248.4609 347.4143,245.9179 L349.8791,250.8476 C350.23457,251.55463 350.9533,251.9999 351.7424,251.9999 L360.0744,251.9999 C361.2267,251.9999 362.1564,251.06631 362.1564,249.9179 L362.1564,238.8869 C370.1134,233.0314 374.6564,224.9569 374.6564,216.5859 C374.6564,213.5507 374.04702,210.625 372.965,207.8476 C374.3752,206.2734 375.8283,204.2226 376.9338,201.5585 C378.2111,201.84756 379.5471,202.00381 380.9026,202.00381 C382.0549,202.00381 382.9846,201.07412 382.9846,199.92181 C382.9846,198.7695 382.05101,197.83981 380.9026,197.83981 C379.95729,197.83981 379.0471,197.74606 378.1878,197.57028 C378.58624,195.77728 378.81671,193.78508 378.81671,191.58978 C378.81671,188.14448 376.01201,185.33978 372.56671,185.33978 C369.12141,185.33978 366.31671,188.14448 366.31671,191.58978 C366.31671,195.01558 369.05891,198.24598 372.98861,200.17568 C372.38705,201.57408 371.67221,202.74598 370.93001,203.75378 C365.86751,195.33188 355.96901,188.91378 343.89901,186.45678 C345.70761,185.05838 347.18421,183.24198 348.18811,181.10518 C355.94201,180.78096 362.16811,174.41768 362.16811,166.58218 C362.16811,158.54308 355.62511,152 347.58211,152 L347.58201,152 Z M347.58201,156.168 C353.32421,156.168 358.00001,160.8399 358.00001,166.586 C358.00001,172.3282 353.32811,177.004 347.58201,177.004 C341.83981,177.004 337.16401,172.3321 337.16401,166.586 C337.16401,160.8438 341.83591,156.168 347.58201,156.168 Z M347.58201,160.336 C346.42971,160.336 345.50001,161.26569 345.50001,162.418 L345.50001,170.75 C345.50001,171.9023 346.4336,172.832 347.58201,172.832 C348.73431,172.832 349.66401,171.89841 349.66401,170.75 L349.66401,162.418 C349.66401,161.2657 348.73432,160.336 347.58201,160.336 Z M333.18701,164.7227 C333.10498,165.33989 332.99951,165.9493 332.99951,166.586 C332.99951,167.6485 333.12842,168.6758 333.34326,169.6719 C333.14404,169.99221 332.99951,170.34768 332.99951,170.75 L332.99951,179.082 C332.99951,180.2343 333.9331,181.164 335.08151,181.164 C336.23381,181.164 337.16351,180.23431 337.16351,179.082 L337.16351,176.7539 C338.94081,178.5742 341.20651,179.8828 343.72601,180.582 C341.83541,183.4843 338.61661,185.332 335.07761,185.332 C329.33541,185.332 324.65961,180.6601 324.65961,174.914 C324.65961,169.8554 328.29241,165.6367 333.18301,164.715 L333.18701,164.7227 Z M332.99951,189.4997 C353.67551,189.4997 370.49951,201.6477 370.49951,216.5817 C370.49951,223.984 366.37841,230.9137 358.89751,236.0977 C358.33501,236.48832 357.99907,237.1289 357.99907,237.8125 L357.99907,247.832503 L353.03817,247.832503 L350.36627,242.492703 C349.90924,241.57473 348.85067,241.1294 347.87797,241.438 C338.45997,244.395003 327.54197,244.395003 318.11997,241.438 C317.1395,241.13722 316.08877,241.58253 315.63167,242.492703 L312.95977,247.832503 L307.99887,247.832503 L307.99887,237.8989 C307.99887,237.18015 307.62778,236.5122 307.0184,236.1294 L291.487401,226.4536 C288.780401,224.7661 287.1632,221.852 287.1632,218.6645 C287.1632,216.3676 289.0343,214.4965 291.331201,214.4965 L293.8624,214.4965 C294.85849,214.4965 295.714,213.78947 295.9054,212.8129 C296.70618,208.7113 298.8898,204.6996 302.2179,201.2229 C302.96399,200.44165 302.99134,199.219 302.2804,198.4104 C301.1163,197.0823 300.3234,195.5627 299.9366,193.9377 C301.7569,194.36348 303.4366,195.2775 304.8194,196.6174 C305.53424,197.30881 306.6241,197.40646 307.4405,196.84396 C314.421,192.10566 323.4995,189.4997 332.9995,189.4997 L332.99951,189.4997 Z M372.58151,189.4997 C373.72991,189.4997 374.66351,190.43329 374.66351,191.5817 C374.66351,193.2262 374.50726,194.734 374.24164,196.1051 C371.92524,194.7887 370.49554,192.9723 370.49554,191.5817 C370.49554,190.4333 371.42913,189.4997 372.57754,189.4997 L372.58151,189.4997 Z M332.99951,193.70666 C327.56201,193.70666 322.12851,194.42154 317.76951,195.8512 C316.67571,196.21058 316.08201,197.3864 316.43751,198.4801 C316.80079,199.5739 317.98051,200.1754 319.06641,199.8121 C326.96091,197.2183 339.04341,197.2183 346.93341,199.8121 C347.14825,199.88241 347.367,199.91366 347.58185,199.91366 C348.45685,199.91366 349.27325,199.35897 349.56235,198.48006 C349.92173,197.38626 349.32797,196.21056 348.23035,195.85116 C343.87095,194.42146 338.43735,193.70666 333.00035,193.70666 L332.99951,193.70666 Z M303.83151,206.1677 C301.53461,206.1677 299.66351,208.0388 299.66351,210.3357 C299.66351,212.6326 301.53461,214.5037 303.83151,214.5037 C306.12841,214.5037 307.99951,212.6326 307.99951,210.3357 C307.99951,208.0388 306.12841,206.1677 303.83151,206.1677 Z" id="ico-referral"></path>
        </g>
    </g>
</svg>