<?xml version="1.0" encoding="UTF-8"?>
<svg width="53px" height="59px" viewBox="0 0 53 59" version="1.1" xmlns="http://www.w3.org/2000/svg" xmlns:xlink="http://www.w3.org/1999/xlink">
    <!-- Generator: Sketch 63.1 (92452) - https://sketch.com -->
    <title>referral-friend</title>
    <desc>Created with Sketch.</desc>
    <g id="Referral-Teen" stroke="none" stroke-width="1" fill="none" fill-rule="evenodd">
        <g id="Referral-Teen-5b" transform="translate(-317.000000, -446.000000)" fill="#AB55FC">
            <g id="referral-friend" transform="translate(317.000000, 446.000000)">
                <path d="M1.11392236,9.13656371 L26.4285087,9.13656371 L22.0115739,14.0971151 C21.6119431,14.5659012 21.6509402,15.2784574 22.0979057,15.6985041 C22.5448748,16.1199822 23.2355222,16.0970438 23.6546515,15.6454597 L29.78154,8.76396083 L29.8205299,8.71235142 L29.8762273,8.64353644 L29.8762273,8.60339252 L29.9207852,8.52310837 L29.9597751,8.45429338 L29.9597751,8.40841672 C29.9597751,8.37974198 29.9597751,8.34533448 29.987622,8.31666341 C30.0154725,8.28799233 29.987622,8.265054 29.987622,8.24211567 L29.987622,8.19623901 L29.987622,8.10448569 L29.987622,8.01846512 L29.987622,8.01846512 L29.987622,7.93244455 L29.987622,7.84069123 L29.987622,7.79481457 L29.987622,7.72026684 C29.987622,7.69732851 29.987622,7.6571846 29.9597751,7.62851352 L29.9597751,7.58263686 L29.9207852,7.51382187 L29.8762273,7.43353772 L29.8762273,7.39339381 L29.8205299,7.32457882 L29.78154,7.27296941 L23.6546515,0.391470562 C23.456925,0.159220894 23.1770622,0.0187318834 22.8776688,0.0015189609 C22.5782968,-0.0142515994 22.2858687,0.0932722789 22.0645051,0.301152266 C21.8431094,0.509032254 21.7136099,0.800070108 21.7038714,1.10971921 C21.6941221,1.41795163 21.8041266,1.71613524 22.0115989,1.93979312 L26.4285336,6.84272342 L1.11394731,6.84272342 C0.498478054,6.84272342 0,7.35595478 0,7.9896399 C0,8.62332501 0.498478054,9.13655637 1.11394731,9.13655637 L1.11392236,9.13656371 Z" id="Fill-2"></path>
                <g id="Group-5" transform="translate(2.000000, 15.000000)">
                    <path d="M14.367,5.545 C19.6405,5.545 23.9375,9.8419 23.9375,15.1155 C23.9375,20.4865 19.6406,24.7835 14.367,24.7835 C8.996,24.7835 4.6989995,20.4866 4.6989995,15.1155 C4.6989995,9.842 8.9959,5.545 14.367,5.545 Z M14.367,7.9864 C10.46075,7.9864 7.238,11.20905 7.238,15.1154 C7.238,19.1193 10.46065,22.2444 14.367,22.2444 C18.27335,22.2444 21.496,19.1194 21.496,15.1154 C21.496,11.20915 18.27335,7.9864 14.367,7.9864 Z" id="Fill-1"></path>
                    <path d="M3.2344,41.385 L25.4024,41.385 L23.6446,33.475 C23.15632,31.0336 21.0079,29.37345 18.5666,29.37345 L10.1681,29.37345 C7.62905,29.37345 5.57825,31.0336 4.9920985,33.475 L3.2344,41.385 Z M26.9649,43.9241985 L1.7694,43.9241985 C0.9881499,43.9241985 0.30454995,43.2404485 0.499849916,42.3615485 L2.6483,32.98655 C3.42955,29.37325 6.55455,26.93205 10.1678,26.93205 L18.5663,26.93205 C22.1796,26.93205 25.3048,29.37345 26.0858,32.98655 L28.1366,42.2640485 C28.42957,43.0452985 27.84363,43.9241985 26.9647,43.9241985 L26.9649,43.9241985 Z" id="Fill-2"></path>
                    <path d="M36.7305,0.07615 C42.004,0.07615 46.301,4.37305 46.301,9.64665 C46.301,15.01765 42.0041,19.31465 36.7305,19.31465 C31.3595,19.31465 27.0625,15.01775 27.0625,9.64665 C27.0625,4.37315 31.3594,0.07615 36.7305,0.07615 Z M36.7305,2.51755 C32.7266,2.51755 29.6015,5.7402 29.6015,9.64655 C29.6015,13.65045 32.7265,16.77555 36.7305,16.77555 C40.63675,16.77555 43.8595,13.65055 43.8595,9.64655 C43.8595,5.7403 40.63685,2.51755 36.7305,2.51755 Z" id="Fill-3"></path>
                    <path d="M30.09,38.455 C29.4064,38.455 28.9181,37.86905 28.9181,37.18545 C28.9181,36.50185 29.40638,35.9159 30.09,35.9159 L47.766,35.9159 L46.0082,28.0059 C45.42225,25.5645 43.3715,23.90435 40.8322,23.90435 L32.5312,23.90435 C29.99215,23.90435 27.94135,25.5645 27.3552,28.0059 C27.257545,28.6895 26.57395,29.0801 25.89035,28.98245 C25.20675,28.78714 24.81615,28.2012 25.01145,27.5176 C25.7927,23.9043 28.82005,21.4631 32.53095,21.4631 L40.83195,21.4631 C44.5429,21.4631 47.66795,23.9045 48.44895,27.5176 L50.49975,36.7951 C50.69505,37.57635 50.109125,38.45525 49.32785,38.45525 L30.09,38.455 Z" id="Fill-4"></path>
                </g>
            </g>
        </g>
    </g>
</svg>